<svg xmlns="http://www.w3.org/2000/svg" width="160" height="48" viewBox="0 0 160 48">
  <rect width="160" height="48" rx="8" fill="#000"/>
  <text x="50" y="17" font-family="-apple-system,BlinkMacSystemFont,sans-serif" font-size="9" fill="#fff" opacity="0.85">Download on the</text>
  <text x="44" y="33" font-family="-apple-system,BlinkMacSystemFont,sans-serif" font-size="16" font-weight="600" fill="#fff">App Store</text>
  <path d="M25 12.5c2.3-2.8 5.9-2.4 5.9-2.4s.5 3.3-1.8 5.6c-2.5 2.4-5.3 1.9-5.3 1.9s-.5-2.8 1.2-5.1zm-1.2 6c1.4 0 4-.9 5.7-.9 1.8 0 4.5 1.1 4.5 1.1s-2.5 3.6-2.5 9.1c0 5.8 3.2 7.9 3.2 7.9s-2.2 2.8-4.3 2.8c-1.7 0-2.6-1-4.3-1-1.8 0-3.2 1-4.5 1-2 0-4.5-3.3-4.5-3.3s2.9-1.8 2.9-7.5c0-5.5-3-8-3-8s2.1-1.2 4-.9c1.6.2 2.5 1.2 2.8 1.7z" fill="#fff"/>
</svg>
